<?xml version="1.0" encoding="UTF-8"?>
<svg width="13px" height="7px" viewBox="0 0 13 7" version="1.1" xmlns="http://www.w3.org/2000/svg" xmlns:xlink="http://www.w3.org/1999/xlink">
    <!-- Generator: Sketch 54.1 (76490) - https://sketchapp.com -->
    <title>icon-arrow-left-blue</title>
    <desc>Created with Sketch.</desc>
    <g id="Page-1" stroke="none" stroke-width="1" fill="none" fill-rule="evenodd">
        <g id="icon-arrow-left-blue" fill="#7E75AD">
            <path d="M3.5,7 C3.28551595,7.00262669 3.07939246,6.91692271 2.93,6.763 L0.23,4.071 C-0.0765555633,3.75205158 -0.0765555633,3.24794842 0.23,2.929 L2.93,0.236 C3.07949488,0.0823450037 3.28564157,-0.00300695899 3.5,0 C3.94589158,0.00163695325 4.30726073,0.362113834 4.31,0.808 C4.30626406,1.02208477 4.22033188,1.22653174 4.07,1.379 L2.76,2.692 L11.57,2.692 C12.0162461,2.692 12.378,3.05375392 12.378,3.5 C12.378,3.94624608 12.0162461,4.308 11.57,4.308 L2.76,4.308 L4.07,5.621 C4.22033188,5.77346826 4.30626406,5.97791523 4.31,6.192 C4.30672027,6.63765977 3.94566652,6.99782203 3.5,7 L3.5,7 Z" id="In"></path>
        </g>
    </g>
</svg>